# File created by Blade
# Date/Time:  Thu Jan 22 15:49:58 2015
# Frame Rate: 120.000 fps
#------------------------------------------------------
:FULLY-SPECIFIED
:DEGREES
1028
root 2.792171 37.121662 5.385839 -0.261501 -5.864180 0.849211
RightUpLeg 8.858620 -5.450249 -3.225255
RightLeg -5.445758 -0.000000 0.000000
RightFoot -10.025141 -11.202861 16.003710
RightToeBase 12.813845 -0.000000 -0.000000
LeftUpLeg 8.681401 7.482654 3.827449
LeftLeg -3.382661 -0.000000 0.000000
LeftFoot -7.936436 8.310713 -17.592124
LeftToeBase 8.314480 -0.000000 -0.000000
Spine -0.537664 -5.869830 -4.339648
RightShoulder -20.179755 8.657198 -38.234982
RightArm 171.364796 51.400570 115.348516
RightForeArm 64.645534 -0.000000 141.621772
RightHand 22.794405 -0.000000 8.286267
RightHandThumb1 -24.326973 -0.000000 -32.862282
LeftShoulder -28.584506 15.588783 37.920854
LeftArm 162.825343 -62.432516 -143.285896
LeftForeArm -40.281850 -0.000000 108.446707
LeftHand -13.600771 -0.000000 -6.549485
LeftHandThumb1 -26.253704 0.000000 33.147579
Head 13.299085 21.481875 18.518497
1029
root 2.796330 37.122334 5.386758 -0.239146 -5.847390 0.855618
RightUpLeg 8.848581 -5.473374 -3.236368
RightLeg -5.465881 -0.000000 0.000000
RightFoot -10.013961 -11.208451 16.011451
RightToeBase 12.798523 -0.000000 -0.000000
LeftUpLeg 8.660176 7.463050 3.811591
LeftLeg -3.388612 -0.000000 0.000000
LeftFoot -7.947946 8.306497 -17.617340
LeftToeBase 8.479018 -0.000000 -0.000000
Spine -0.567499 -5.877590 -4.332328
RightShoulder -20.149776 8.663157 -38.241884
RightArm 171.478762 51.510578 115.448608
RightForeArm 64.679357 -0.000000 141.628796
RightHand 22.847994 -0.000000 8.183412
RightHandThumb1 -24.326973 -0.000000 -32.862282
LeftShoulder -28.535191 15.543622 37.867588
LeftArm 163.039615 -62.472779 -143.403437
LeftForeArm -40.260762 0.000000 108.417772
LeftHand -13.608383 -0.000000 -6.463233
LeftHandThumb1 -26.253704 0.000000 33.147579
Head 13.299385 21.444258 18.597604
1030
root 2.800288 37.123778 5.387595 -0.212823 -5.827106 0.859050
RightUpLeg 8.832719 -5.513574 -3.244949
RightLeg -5.484083 -0.000000 0.000000
RightFoot -9.969199 -11.199875 15.990376
RightToeBase 12.720102 -0.000000 -0.000000
LeftUpLeg 8.635677 7.455125 3.800062
LeftLeg -3.400622 -0.000000 0.000000
LeftFoot -7.914699 8.297765 -17.620807
LeftToeBase 8.422905 -0.000000 -0.000000
Spine -0.608338 -5.886809 -4.312692
RightShoulder -20.122245 8.658623 -38.255592
RightArm 171.595605 51.624850 115.530909
RightForeArm 64.694709 -0.000000 141.620396
RightHand 22.903857 0.000000 8.099179
RightHandThumb1 -24.326973 -0.000000 -32.862282
LeftShoulder -28.485983 15.496541 37.809921
LeftArm 163.209751 -62.512676 -143.494211
LeftForeArm -40.286012 -0.000000 108.393696
LeftHand -13.589799 -0.000000 -6.433125
LeftHandThumb1 -26.253704 0.000000 33.147579
Head 13.320248 21.513000 18.740291
1031
root 2.803674 37.124476 5.388247 -0.191215 -5.804594 0.859101
RightUpLeg 8.827270 -5.510469 -3.245785
RightLeg -5.511689 -0.000000 0.000000
RightFoot -9.963586 -11.231857 16.020139
RightToeBase 12.754362 -0.000000 -0.000000
LeftUpLeg 8.611880 7.460171 3.793852
LeftLeg -3.404041 -0.000000 0.000000
LeftFoot -7.907515 8.273996 -17.636321
LeftToeBase 8.432849 -0.000000 -0.000000
Spine -0.624384 -5.895610 -4.298346
RightShoulder -20.114678 8.647731 -38.252231
RightArm 171.731577 51.710578 115.643294
RightForeArm 64.711188 -0.000000 141.615830
RightHand 22.944719 -0.000000 7.995752
RightHandThumb1 -24.326973 -0.000000 -32.862282
LeftShoulder -28.467868 15.455795 37.760594
LeftArm 163.371653 -62.526272 -143.597974
LeftForeArm -40.305661 -0.000000 108.392142
LeftHand -13.602475 -0.000000 -6.301619
LeftHandThumb1 -26.253704 0.000000 33.147579
Head 13.257295 21.479878 18.783155
1032
root 2.807426 37.125163 5.388865 -0.163575 -5.781475 0.865086
RightUpLeg 8.811826 -5.548562 -3.254738
RightLeg -5.529753 -0.000000 0.000000
RightFoot -9.948583 -11.228108 16.036523
RightToeBase 12.790049 -0.000000 -0.000000
LeftUpLeg 8.583576 7.448413 3.779408
LeftLeg -3.411503 -0.000000 0.000000
LeftFoot -7.897591 8.272173 -17.618836
LeftToeBase 8.475858 -0.000000 -0.000000
Spine -0.647471 -5.914561 -4.290734
RightShoulder -20.107679 8.646770 -38.253757
RightArm 171.874870 51.793090 115.766480
RightForeArm 64.773760 -0.000000 141.614328
RightHand 22.992577 -0.000000 7.909116
RightHandThumb1 -24.326973 -0.000000 -32.862282
LeftShoulder -28.471602 15.445637 37.683260
LeftArm 163.578736 -62.509324 -143.722712
LeftForeArm -40.306079 -0.000000 108.380727
LeftHand -13.650668 -0.000000 -6.148402
LeftHandThumb1 -26.253704 0.000000 33.147579
Head 13.181432 21.449318 18.813930
1033
root 2.810593 37.125362 5.389766 -0.130441 -5.758418 0.871968
RightUpLeg 8.788790 -5.568302 -3.261465
RightLeg -5.543086 -0.000000 0.000000
RightFoot -9.949792 -11.247751 16.039981
RightToeBase 12.798614 -0.000000 -0.000000
LeftUpLeg 8.552963 7.443957 3.764768
LeftLeg -3.426107 -0.000000 0.000000
LeftFoot -7.873985 8.265152 -17.607603
LeftToeBase 8.480864 -0.000000 -0.000000
Spine -0.679925 -5.942650 -4.284771
RightShoulder -20.099486 8.641802 -38.250438
RightArm 172.023320 51.871638 115.895696
RightForeArm 64.856336 -0.000000 141.603967
RightHand 23.013292 0.000000 7.888146
RightHandThumb1 -24.326973 -0.000000 -32.862282
LeftShoulder -28.484595 15.477956 37.606127
LeftArm 163.800447 -62.452619 -143.886971
LeftForeArm -40.308937 0.000000 108.376198
LeftHand -13.686935 -0.000000 -6.079114
LeftHandThumb1 -26.253704 0.000000 33.147579
Head 13.108047 21.444817 18.825489
1034
root 2.814315 37.125898 5.390277 -0.103258 -5.734308 0.886482
RightUpLeg 8.777638 -5.587915 -3.276212
RightLeg -5.571460 -0.000000 0.000000
RightFoot -9.930227 -11.268735 16.027460
RightToeBase 12.778450 -0.000000 -0.000000
LeftUpLeg 8.523802 7.449636 3.743191
LeftLeg -3.434201 -0.000000 0.000000
LeftFoot -7.861556 8.245161 -17.618397
LeftToeBase 8.375822 -0.000000 -0.000000
Spine -0.682423 -5.987667 -4.293496
RightShoulder -20.115822 8.737008 -38.287624
RightArm 172.058664 51.945994 115.971298
RightForeArm 64.976709 0.000000 141.608082
RightHand 22.999963 -0.000000 7.860677
RightHandThumb1 -24.326973 -0.000000 -32.862282
LeftShoulder -28.544654 16.098720 37.115282
LeftArm 165.278503 -61.888243 -145.061043
LeftForeArm -40.348423 -0.000000 108.286019
LeftHand -13.728647 -0.000000 -5.795595
LeftHandThumb1 -26.253704 0.000000 33.147579
Head 12.970840 21.458224 18.808655
1035
root 2.819083 37.129710 5.391587 -0.079800 -5.706451 0.887690
RightUpLeg 8.767518 -5.611353 -3.282351
RightLeg -5.590313 -0.000000 0.000000
RightFoot -9.882969 -11.287899 16.034262
RightToeBase 12.718161 -0.000000 -0.000000
LeftUpLeg 8.501363 7.439132 3.733416
LeftLeg -3.444504 -0.000000 0.000000
LeftFoot -7.820646 8.225847 -17.622747
LeftToeBase 8.463675 -0.000000 -0.000000
Spine -0.686747 -6.063091 -4.314523
RightShoulder -20.033852 9.081321 -38.352532
RightArm 171.888846 52.164433 115.888856
RightForeArm 65.199646 0.000000 141.611283
RightHand 22.998428 -0.000000 7.806180
RightHandThumb1 -24.326973 -0.000000 -32.862282
LeftShoulder -28.808532 17.197576 36.189869
LeftArm 167.252157 -60.774646 -146.366946
LeftForeArm -40.503438 -0.000000 108.106725
LeftHand -13.724972 -0.000000 -5.676730
LeftHandThumb1 -26.253704 0.000000 33.147579
Head 12.866869 21.512418 18.910073
1036
root 2.822179 37.130593 5.392502 -0.049113 -5.680232 0.887603
RightUpLeg 8.752144 -5.615252 -3.283480
RightLeg -5.609624 -0.000000 0.000000
RightFoot -9.868882 -11.305399 16.043383
RightToeBase 12.744766 -0.000000 -0.000000
LeftUpLeg 8.472001 7.437022 3.725534
LeftLeg -3.455898 -0.000000 0.000000
LeftFoot -7.806005 8.226176 -17.611111
LeftToeBase 8.375908 -0.000000 -0.000000
Spine -0.718223 -6.097097 -4.302987
RightShoulder -20.015249 9.103831 -38.329309
RightArm 172.047350 52.251689 115.990739
RightForeArm 65.278141 -0.000000 141.581421
RightHand 23.044530 -0.000000 7.794415
RightHandThumb1 -24.326973 -0.000000 -32.862282
LeftShoulder -28.858411 17.357725 36.008788
LeftArm 167.632756 -60.568940 -146.613594
LeftForeArm -40.497588 -0.000000 108.084729
LeftHand -13.755935 -0.000000 -5.635805
LeftHandThumb1 -26.253704 0.000000 33.147579
Head 12.779042 21.585205 18.924916
1037
root 2.824004 37.129223 5.394657 -0.016830 -5.658435 0.893873
RightUpLeg 8.730317 -5.633425 -3.287387
RightLeg -5.621290 -0.000000 0.000000
RightFoot -9.878529 -11.318106 16.047544
RightToeBase 12.716409 -0.000000 -0.000000
LeftUpLeg 8.448917 7.437555 3.715130
LeftLeg -3.477476 -0.000000 0.000000
LeftFoot -7.795096 8.206870 -17.596722
LeftToeBase 8.363431 -0.000000 -0.000000
Spine -0.758352 -6.116261 -4.284571
RightShoulder -20.036198 9.007869 -38.287124
RightArm 172.272273 52.247392 116.143824
RightForeArm 65.354826 -0.000000 141.541657
RightHand 23.047823 -0.000000 7.835529
RightHandThumb1 -24.326973 -0.000000 -32.862282
LeftShoulder -28.834475 17.087645 36.159067
LeftArm 167.280107 -60.749176 -146.372101
LeftForeArm -40.307769 -0.000000 108.122443
LeftHand -13.795738 -0.000000 -5.829176
LeftHandThumb1 -26.253704 0.000000 33.147579
Head 12.701485 21.628180 18.868579
